<?xml version="1.0" encoding="UTF-8"?>
<svg width="204px" height="38px" viewBox="0 0 204 38" version="1.1" xmlns="http://www.w3.org/2000/svg" xmlns:xlink="http://www.w3.org/1999/xlink">
    <title>PC网站logo</title>
    <defs>
        <path d="M102.029851,10.1016337 C101.548553,11.1215367 100.815139,11.9294386 99.8382084,12.511013 C98.8498185,13.104047 97.6465632,13.379077 96.2714118,13.379077 C94.8933957,13.379077 93.6672171,13.1011821 92.624394,12.511013 C91.6130819,11.9265737 90.830966,11.1215367 90.2895002,10.1044976 C89.8497197,9.2810787 89.587573,8.36597705 89.4937054,7.37166923 L94.8297829,7.37201682 C94.9021757,8.02943646 95.0586574,8.50923793 95.2629578,8.84394282 C95.5064741,9.22783928 95.784373,9.36535436 96.15108,9.36535436 C96.5149221,9.36535436 96.7842252,9.22783928 97.0076872,8.84394282 C97.1946003,8.50923793 97.3270988,8.02943646 97.3701643,7.37201682 L102.668469,7.37175904 C102.622681,8.35859431 102.412915,9.27010548 102.029851,10.1016337 Z M32.1607087,0 C33.8595935,0 35.2977679,0.455518871 36.3978889,1.4267196 C37.4808205,2.37213619 38.1340222,3.65847586 38.3889982,5.2284404 C38.4233769,5.4318482 38.3632128,5.63812096 38.2199678,5.79569041 C38.0824527,5.95325985 37.8761819,6.04493656 37.6613145,6.04493656 L33.704887,6.04493656 C33.3410449,6.04493656 33.0373663,5.78996048 32.988663,5.44617261 C32.8969863,4.81303 32.7365541,4.43486311 32.5675251,4.22859039 C32.427145,4.05383156 32.2724395,3.97934449 32.0403828,3.97934449 C31.7968664,3.97934449 31.5562145,4.07675079 31.315563,4.50935049 C31.0605881,4.95913958 30.8915592,5.66103986 30.8800996,6.68953848 C30.8657751,7.7180371 31.0176155,8.41993786 31.2582669,8.86399715 C31.481729,9.27081275 31.7252439,9.38254379 32.0117337,9.38254379 C32.2266011,9.38254379 32.3583863,9.3166507 32.4787121,9.16481108 C32.6592007,8.94707878 32.8225007,8.58610147 32.9256371,8.02458127 C32.9858,7.68652325 33.2952084,7.43727743 33.6533207,7.43727743 L37.615476,7.43727743 C37.8246136,7.43727743 38.0251546,7.52608925 38.1626698,7.67792887 C38.3001849,7.82976849 38.36035,8.03317635 38.3288362,8.23371926 C38.1769966,9.23929871 37.821749,10.1388779 37.257364,10.9209952 C36.7015737,11.7059775 35.9681555,12.3133354 35.0685774,12.7402053 C34.1661344,13.1756699 33.1405046,13.379077 32.00314,13.379077 C30.6107994,13.379077 29.3874886,13.1097769 28.3819092,12.5310673 C27.3963832,11.9523578 26.6629669,11.1473208 26.1845289,10.1245519 C25.7118206,9.11610759 25.4998188,7.96441841 25.5198731,6.68953848 C25.5370625,5.43471275 25.7863111,4.29448331 26.2848035,3.28603895 C26.7890256,2.26613505 27.5396274,1.45536851 28.5308823,0.870929209 C29.5507871,0.275030289 30.7740978,0 32.1607087,0 Z M115.68969,12.4050116 C115.767042,12.7917729 115.520663,13.1069121 115.142496,13.1069121 L111.807752,13.1069121 C111.544181,13.1069121 111.289212,12.9608025 111.143102,12.7316106 C110.35239,11.4538658 109.579815,10.1761208 108.825392,8.898376 C108.897969,10.0672546 108.978191,11.236133 109.066047,12.4050116 C109.097561,12.7917729 108.799606,13.1069121 108.40425,13.1069121 L104.805938,13.1069121 C104.407717,13.1069121 104.063933,12.7917729 104.046744,12.4050116 C103.980304,10.727206 103.925159,9.04940051 103.881308,7.37159499 L115.20282,7.37111794 C115.278438,9.04908248 115.440729,10.727047 115.68969,12.4050116 Z M88.4015354,12.4050116 C88.4101301,12.7917729 88.0892571,13.1069121 87.6881713,13.1069121 L83.9580723,13.1069121 C83.5512567,13.1069121 83.2189359,12.7917729 83.2103412,12.4050116 C83.1893319,11.1597356 83.1692706,9.91541469 83.1501713,8.67204858 L81.4398246,8.67204858 C81.4589239,9.91541469 81.4780273,11.1597356 81.4971266,12.4050116 C81.5028564,12.7917729 81.1791205,13.1069121 80.7780347,13.1069121 L77.0450757,13.1069121 C76.641125,13.1069121 76.3087944,12.7917729 76.3030646,12.4050116 L76.251,7.371 L88.3114678,7.37159499 C88.3387134,9.04940051 88.3687362,10.727206 88.4015354,12.4050116 Z M72.151,7.371 L72.1289123,4.3030779 C72.1480116,7.00372229 72.169973,9.70436718 72.1948021,12.4050116 C72.197667,12.7917729 71.8767979,13.1069121 71.4699824,13.1069121 L67.7370233,13.1069121 C67.3359375,13.1069121 67.003605,12.7917729 67.0007401,12.4050116 C66.9912465,10.7270254 66.9821227,9.04903906 66.9733673,7.37105275 L72.151,7.371 Z M25.7691207,12.1700894 C25.8407432,12.3849568 25.8006334,12.6227436 25.6631183,12.8089621 C25.5198734,12.9951805 25.2935462,13.1069121 25.0528947,13.1069121 L21.4087467,13.1069121 C21.0821483,13.1069121 20.8042518,12.9006394 20.7211698,12.6026899 C20.5970242,12.1557658 20.4709699,11.709796 20.3430044,11.2647818 L17.6843775,11.2647818 C17.5373127,11.7078861 17.389293,12.1519459 17.2403183,12.5969601 C17.1400469,12.8977745 16.8478278,13.1069121 16.5183645,13.1069121 L13.0117289,13.1069121 C12.7768072,13.1069121 12.5590748,12.9951805 12.4301544,12.8089621 C12.3040989,12.6227436 12.2811795,12.3849568 12.3699914,12.1700894 C13.0050784,10.5703438 13.6319169,8.97076658 14.2505072,7.37135771 L24.0939444,7.37133349 C24.6548631,8.97108721 25.2132552,10.5706725 25.7691207,12.1700894 Z M11.6824164,12.4050116 C11.6623621,12.7917729 11.3214377,13.1069121 10.920352,13.1069121 L7.23036302,13.1069121 C6.83214213,13.1069121 6.53419289,12.7917729 6.56570677,12.4050116 C6.66311332,11.1597356 6.75001524,9.91541469 6.82641254,8.67204858 L5.22206926,8.67204858 C5.12657265,9.91541469 5.01866183,11.1597356 4.8983361,12.4050116 C4.86109242,12.7917729 4.50870986,13.1069121 4.11621879,13.1069121 L0.549420164,13.1069121 C0.171253546,13.1069121 -0.0665330705,12.7917729 0.0165489834,12.4050116 C0.282306602,10.727206 0.451225074,9.04940051 0.523304381,7.37159499 L11.836948,7.37159499 C11.7978433,9.04940051 11.7463328,10.727206 11.6824164,12.4050116 Z M64.940877,12.1700894 C65.0182293,12.3849568 64.9838543,12.6227436 64.849204,12.8089621 C64.7145538,12.9951805 64.4910906,13.1069121 64.253304,13.1069121 L60.609154,13.1069121 C60.2825556,13.1069121 59.9989273,12.9006394 59.9043857,12.6026899 L59.4861117,11.2647818 L56.8160251,11.2647818 L56.4149425,12.5969601 C56.3261306,12.8977745 56.0396375,13.1069121 55.7101741,13.1069121 L52.1834842,13.1069121 C51.9763069,13.1069121 51.7818729,13.0241019 51.6440479,12.8822459 L51.662,12.862 L51.6162629,12.9102823 C51.4783233,13.0352899 51.2972775,13.1069121 51.1062843,13.1069121 L46.8261276,13.1069121 C46.4823397,13.1069121 46.184386,12.8748552 46.1127635,12.5511217 C46.0497358,12.2560371 45.9609273,11.9351687 45.8491963,11.5885159 C45.7374662,11.2275387 45.6171408,10.8980755 45.4882204,10.5915313 C45.4853555,10.5858015 45.4824896,10.5772068 45.4796247,10.571477 C45.356434,10.2563381 45.2504302,10.024281 45.1644833,9.86671157 C45.0097787,9.5802217 44.8292921,9.3281102 44.6287492,9.107513 C44.6211094,10.2057241 44.6134697,11.3048905 44.6058299,12.4050116 C44.602965,12.7917729 44.2706373,13.1069121 43.8666867,13.1069121 L40.1222641,13.1069121 C39.7154485,13.1069121 39.3917155,12.7917729 39.3945804,12.4050116 L39.44,7.371 L49.388,7.371 L49.5918975,7.6111593 C50.1014651,8.2387472 50.5259392,8.92948007 50.8599045,9.68335772 C51.0942589,10.1917 51.3037381,10.7000425 51.4864716,11.207138 L51.66,11.712 L53.27,7.371 L63.164886,7.37175344 C63.7553672,8.97136715 64.3473641,10.5708125 64.940877,12.1700894 Z M43.9497679,0.272165385 C44.3508537,0.272165385 44.6774525,0.587304177 44.6745876,0.974065506 C44.6726777,1.65400147 44.6698157,2.33393736 44.6659959,3.01387332 C45.1568485,2.21552154 45.6467401,1.41716988 46.1356828,0.61881809 C46.2674681,0.403950692 46.5109886,0.272165385 46.7688295,0.272165385 L51.0231991,0.272165385 C51.2953645,0.272165385 51.541747,0.418275227 51.6649376,0.64746713 C51.793858,0.876659032 51.7738066,1.15741915 51.621967,1.37228654 C50.4981689,2.94300767 49.3734689,4.51372938 48.2478703,6.08445054 L39.4512713,6.08448847 C39.4656059,4.38101416 39.4791771,2.67753984 39.4919852,0.974065506 C39.4948501,0.587304177 39.821449,0.272165385 40.2282645,0.272165385 L43.9497679,0.272165385 Z M60.041905,0.272165385 C60.3513141,0.272165385 60.6263427,0.461248679 60.7266141,0.742008776 L62.69,6.084 L53.7484927,6.08426833 C54.4087433,4.30330643 55.0683677,2.52255328 55.7273655,0.742008776 C55.8305019,0.461248679 56.1083974,0.272165385 56.4178064,0.272165385 L60.041905,0.272165385 Z M74.6672113,0.272165385 C75.0654322,0.272165385 75.3948939,0.587304177 75.3977588,0.974065506 C75.4034886,1.85072452 75.4092126,2.72642859 75.4149424,3.60117765 C75.4178073,3.99080389 75.0940763,4.3030779 74.6929905,4.3030779 L72.1289123,4.3030779 L72.142,6.084 L66.9667243,6.08406327 C66.9636933,5.49040146 66.9607084,4.89673967 66.9577694,4.3030779 L64.3965473,4.3030779 C63.9925966,4.3030779 63.6631358,3.99080389 63.6631358,3.60117765 C63.6612258,2.72642859 63.6602679,1.85072452 63.6602679,0.974065506 C63.6602679,0.587304177 63.9868697,0.272165385 64.3879555,0.272165385 L74.6672113,0.272165385 Z M80.6261958,0.272165385 C81.0244167,0.272165385 81.3538863,0.587304177 81.3567512,0.974065506 C81.3682108,2.1964224 81.3796666,3.41782429 81.3911262,4.63827117 L83.098605,4.63827117 C83.0852355,3.41782429 83.0728218,2.1964224 83.0613622,0.974065506 C83.0584973,0.587304177 83.3822313,0.272165385 83.7861819,0.272165385 L87.4876339,0.272165385 C87.8887197,0.272165385 88.2181766,0.587304177 88.2210415,0.974065506 C88.2415344,2.67753984 88.2648914,4.38101416 88.2911116,6.08448847 L76.2386187,6.08448847 C76.2226658,4.38101416 76.2078582,2.67753984 76.1941963,0.974065506 C76.1913314,0.587304177 76.5179351,0.272165385 76.916156,0.272165385 L80.6261958,0.272165385 Z M96.0049689,0 C97.3715254,0 98.5776546,0.275030289 99.580369,0.868064305 C100.580219,1.44963877 101.345145,2.25754027 101.866557,3.27457934 C102.300751,4.11897975 102.556171,5.05979474 102.642917,6.0835695 L97.3492872,6.08279405 C97.282682,5.38671383 97.127098,4.88918084 96.9217382,4.55518895 C96.672489,4.15123823 96.400324,4.01372309 96.0422117,4.01372309 C95.6812345,4.01372309 95.4119363,4.15123823 95.1827444,4.54945915 C94.9812947,4.88918084 94.8395865,5.38671383 94.798171,6.08279405 L89.4662939,6.08400753 C89.5191735,5.0600631 89.7521829,4.11910017 90.172044,3.27457934 C90.6791311,2.25754027 91.426868,1.45250367 92.4123931,0.870929209 C93.4265622,0.277895193 94.6355474,0 96.0049689,0 Z M107.922946,0.272165385 C108.186516,0.272165385 108.424307,0.415410323 108.544633,0.64746713 C109.18255,1.90611265 109.816644,3.16571274 110.446921,4.42626828 C110.47175,3.27648886 110.506133,2.12575481 110.550062,0.974065506 C110.567251,0.587304177 110.896719,0.272165385 111.286345,0.272165385 L114.750009,0.272165385 C115.125311,0.272165385 115.386006,0.587304177 115.334438,0.974065506 C115.187581,2.67743392 115.130041,4.3808023 115.161817,6.08417069 L103.849885,6.08448847 C103.811228,4.38101416 103.784215,2.67753984 103.768845,0.974065506 C103.768845,0.587304177 104.092584,0.272165385 104.490805,0.272165385 L107.922946,0.272165385 Z M4.43708754,0.272165385 C4.82671374,0.272165385 5.16190681,0.587304177 5.1819611,0.974065506 C5.241169,2.1964224 5.28700715,3.41782429 5.319476,4.63827117 L6.92381927,4.63827117 C6.90471995,3.41782429 6.87702577,2.1964224 6.84073706,0.974065506 C6.82641257,0.587304177 7.13582146,0.272165385 7.53117744,0.272165385 L11.1982476,0.272165385 C11.5964685,0.272165385 11.9230674,0.587304177 11.9259323,0.974065506 C11.9182474,2.67753984 11.8977744,4.38101416 11.8645131,6.08448847 L0.559602492,6.08448847 C0.582500912,4.38101416 0.505574406,2.67753984 0.328822958,0.974065506 C0.265795193,0.587304177 0.520771063,0.272165385 0.893207842,0.272165385 L4.43708754,0.272165385 Z M21.0735539,0.272165385 C21.3800981,0.272165385 21.6551257,0.461248679 21.7553972,0.742008776 C22.3874328,2.52295693 23.0163392,4.30369634 23.6421163,6.0842271 L14.7465127,6.08433326 C15.4304404,4.30334972 16.1041395,2.52257492 16.7676102,0.742008776 C16.8707465,0.461248679 17.1457771,0.272165385 17.4523212,0.272165385 L21.0735539,0.272165385 Z" id="path-1"></path>
        <path d="M101.685576,9.94554645 C101.207915,10.9072519 100.480056,11.6690537 99.5105197,12.2174428 C98.5296106,12.7766375 97.3354632,13.0359744 95.9707201,13.0359744 C94.6031338,13.0359744 93.3862345,12.7739361 92.3513042,12.2174428 C91.3476484,11.6663528 90.5714486,10.9072519 90.034081,9.94824636 C89.5978103,9.17213507 89.3376821,8.30964444 89.2444249,7.3725243 L94.5401842,7.37328704 C94.612111,7.99237078 94.7673159,8.4442864 94.9698952,8.75962059 C95.2115685,9.12161145 95.4873681,9.25128015 95.8512996,9.25128015 C96.2123879,9.25128015 96.4796462,9.12161145 96.7014169,8.75962059 C96.8867555,8.4442864 97.0181866,7.99237078 97.0610432,7.37328704 L102.319322,7.37222249 C102.273802,8.30244773 102.065634,9.16168562 101.685576,9.94554645 Z M115.242023,12.1174903 C115.31879,12.4821826 115.074274,12.7793391 114.69897,12.7793391 L111.389463,12.7793391 C111.127887,12.7793391 110.874853,12.6415672 110.729849,12.4254533 C109.945122,11.2206181 109.178389,10.0157824 108.429676,8.81094726 C108.501704,9.9131282 108.581325,11.0153094 108.668517,12.1174903 C108.699792,12.4821826 108.404088,12.7793391 108.011724,12.7793391 L104.440645,12.7793391 C104.045438,12.7793391 103.704261,12.4821826 103.687202,12.1174903 C103.621276,10.5356838 103.566555,8.95387717 103.523038,7.37207059 L114.758896,7.37207059 C114.833968,8.95387717 114.99501,10.5356838 115.242023,12.1174903 Z M88.1604083,12.1174903 C88.1689379,12.4821826 87.8504921,12.7793391 87.4524421,12.7793391 L83.7505735,12.7793391 C83.3468371,12.7793391 83.0170292,12.4821826 83.0084996,12.1174903 C82.9876493,10.9432713 82.9677402,9.7699531 82.9487854,8.59753499 L81.2513872,8.59753499 C81.270342,9.7699531 81.2893023,10.9432713 81.3082571,12.1174903 C81.3139435,12.4821826 80.9926524,12.7793391 80.5946023,12.7793391 L76.8898974,12.7793391 C76.4890041,12.7793391 76.1591905,12.4821826 76.1535041,12.1174903 L76.1013995,7.37132424 L88.0710287,7.37163034 C88.0980662,8.95358367 88.1278597,10.535537 88.1604083,12.1174903 Z M72.0333995,7.37132424 L72.0109452,4.47786304 C72.0299,7.02440514 72.0516989,9.57094823 72.07634,12.1174903 C72.0791833,12.4821826 71.7607411,12.7793391 71.3570046,12.7793391 L67.6522996,12.7793391 C67.2542496,12.7793391 66.9244303,12.4821826 66.9215871,12.1174903 C66.9121672,10.5355677 66.9031161,8.95364471 66.8944299,7.3717218 L72.0333995,7.37132424 Z M64.8773165,11.8959734 C64.9540833,12.0985802 64.919966,12.3227984 64.7863349,12.498391 C64.6527038,12.6739835 64.4309317,12.7793391 64.1949448,12.7793391 L60.5783772,12.7793391 C60.2542508,12.7793391 59.9727699,12.5848369 59.8789438,12.3038888 C59.7405741,11.8824667 59.602206,11.4619446 59.4638362,11.0423234 L56.8139581,11.0423234 C56.6812748,11.4601436 56.5485956,11.8788649 56.4159123,12.2984861 C56.3277726,12.5821356 56.0434486,12.7793391 55.7164789,12.7793391 L52.2164796,12.7793391 L51.5284233,11.8959734 L53.2953995,7.37132424 L63.1149084,7.37179992 C63.7008737,8.88001652 64.288343,10.3880744 64.8773165,11.8959734 Z M60.0154221,0.676959522 C60.3224893,0.676959522 60.5954369,0.855253479 60.6949494,1.11999305 L62.6163995,6.08432424 L53.7978089,6.08523445 C54.4436568,4.42996276 55.0889009,2.7748823 55.7335406,1.11999305 C55.8358964,0.855253479 56.1116854,0.676959522 56.4187526,0.676959522 L60.0154221,0.676959522 Z M74.5300336,0.676959522 C74.9252405,0.676959522 75.2522066,0.974116085 75.2550498,1.33880831 C75.2607362,2.16544408 75.2664212,2.99117948 75.2721076,3.81601424 C75.2749508,4.18340791 74.9536665,4.47786304 74.5556164,4.47786304 L72.0109452,4.47786304 L72.0233995,6.08432424 L66.887444,6.08478455 C66.8845698,5.54914401 66.8817373,5.0135035 66.8789464,4.47786304 L64.3371038,4.47786304 C63.9362105,4.47786304 63.6092434,4.18340791 63.6092434,3.81601424 C63.6073479,2.99117948 63.6063991,2.16544408 63.6063991,1.33880831 C63.6063991,0.974116085 63.9305288,0.676959522 64.3285788,0.676959522 L74.5300336,0.676959522 Z M80.4439184,0.676959522 C80.8391253,0.676959522 81.1660992,0.974116085 81.1689424,1.33880831 C81.1803153,2.49141604 81.1916852,3.64312301 81.2030581,4.79392961 L82.897612,4.79392961 C82.8843436,3.64312301 82.8720249,2.49141604 82.860652,1.33880831 C82.8578088,0.974116085 83.1790942,0.676959522 83.5799875,0.676959522 L87.2534211,0.676959522 C87.6514712,0.676959522 87.9784383,0.974116085 87.9812815,1.33880831 C88.0013114,2.92076165 88.0240982,4.50271498 88.049641,6.08466831 L76.0888326,6.08510864 C76.0732726,4.50300853 76.0588153,2.92090842 76.0454608,1.33880831 C76.0426176,0.974116085 76.366753,0.676959522 76.7619598,0.676959522 L80.4439184,0.676959522 Z M95.7062885,0.420324236 C97.0625019,0.420324236 98.2595037,0.679660961 99.2546288,1.23885569 C100.246911,1.78724478 101.00605,2.54904651 101.523515,3.50805205 C101.943666,4.28439302 102.195144,5.14716462 102.28724,6.08460635 L97.0326879,6.08350111 C96.9627689,5.46494999 96.8123386,5.0187982 96.61612,4.71558819 C96.3687592,4.33468751 96.0986503,4.20501924 95.7432484,4.20501924 C95.3850034,4.20501924 95.117744,4.33468751 94.8902869,4.71018543 C94.6976035,5.01895336 94.5601361,5.46540666 94.5135558,6.08445084 L89.2213949,6.08460635 C89.2813107,5.14716462 89.5112895,4.28439302 89.9175127,3.50805205 C90.4207617,2.54904651 91.1628403,1.78994622 92.1409061,1.24155713 C93.1473973,0.6823624 94.3472319,0.420324236 95.7062885,0.420324236 Z M107.534066,0.676959522 C107.795642,0.676959522 108.031632,0.812030701 108.151047,1.03084606 C108.784136,2.21767168 109.413426,3.40539761 110.038933,4.59402424 C110.063574,3.50985268 110.0977,2.42478075 110.141296,1.33880831 C110.158355,0.974116085 110.485331,0.676959522 110.872008,0.676959522 L114.309453,0.676959522 C114.681914,0.676959522 114.940636,0.974116085 114.889458,1.33880831 C114.745894,2.92094819 114.688337,4.50308806 114.716789,6.08522794 L103.490109,6.08522794 C103.452662,4.50308806 103.426425,2.92094819 103.411401,1.33880831 C103.411401,0.974116085 103.732693,0.676959522 104.1279,0.676959522 L107.534066,0.676959522 Z" id="path-3"></path>
        <filter x="-23.6%" y="-1.0%" width="123.9%" height="102.0%" filterUnits="objectBoundingBox" id="filter-4">
            <feOffset dx="-0.257462263" dy="0" in="SourceAlpha" result="shadowOffsetInner1"></feOffset>
            <feComposite in="shadowOffsetInner1" in2="SourceAlpha" operator="arithmetic" k2="-1" k3="1" result="shadowInnerInner1"></feComposite>
            <feColorMatrix values="0 0 0 0 0   0 0 0 0 0   0 0 0 0 0  0 0 0 1 0" type="matrix" in="shadowInnerInner1"></feColorMatrix>
        </filter>
        <path d="M32.3449349,0.420258998 C34.0309613,0.420258998 35.4582519,0.849785454 36.5500464,1.76556822 C37.6247817,2.65703815 38.2730397,3.86997754 38.5260858,5.35035797 C38.5602044,5.54215906 38.500493,5.73666172 38.3583323,5.88524005 C38.221858,6.03381838 38.0171511,6.12026383 37.80391,6.12026383 L33.8774258,6.12026383 C33.5163375,6.12026383 33.2149578,5.87983699 33.1666232,5.5556661 C33.0756403,4.95865141 32.9164229,4.60206328 32.7486732,4.40756075 C32.6093557,4.24277389 32.4558207,4.17253698 32.2255203,4.17253698 C31.9838471,4.17253698 31.7450168,4.26438541 31.5061868,4.67230042 C31.2531416,5.09642388 31.0853923,5.75827291 31.0740194,6.72808409 C31.0598033,7.69789526 31.2104948,8.35974479 31.4493248,8.77846549 C31.6710955,9.16206767 31.9127659,9.26742317 32.1970874,9.26742317 C32.4103285,9.26742317 32.541117,9.20529002 32.660532,9.06211455 C32.8396547,8.85680588 33.0017188,8.51642677 33.1040746,7.98694763 C33.1637821,7.66817961 33.4708465,7.4331559 33.8262484,7.4331559 L37.7584172,7.4331559 C37.9659719,7.4331559 38.164996,7.51690008 38.3014703,7.66007554 C38.4379446,7.80325101 38.4976549,7.99505194 38.4663795,8.18415163 C38.3156892,9.13235147 37.9631292,9.98060016 37.4030159,10.7180889 C36.8514322,11.4582792 36.1235654,12.0309795 35.2307959,12.4334917 C34.3351832,12.8441081 33.3173147,13.0359092 32.1885584,13.0359092 C30.8067561,13.0359092 29.5927055,12.7819753 28.5947371,12.2362877 C27.6166701,11.6906006 26.8888051,10.9314996 26.4139882,9.96709125 C25.9448577,9.01619003 25.7344604,7.93021772 25.7543629,6.72808409 C25.7714222,5.54486034 26.0187832,4.46969354 26.5135026,3.51879232 C27.0139084,2.5570854 27.7588303,1.79258236 28.7425826,1.24149189 C29.7547682,0.679595723 30.9688188,0.420258998 32.3449349,0.420258998 Z M44.0447653,0.676894284 C44.4428153,0.676894284 44.766944,0.974050847 44.7641007,1.33874308 C44.7622053,1.97988104 44.7593628,2.62101882 44.7555718,3.26215679 C45.2427093,2.50935994 45.728895,1.7565634 46.214137,1.00376655 C46.3449249,0.801159753 46.5866016,0.676894284 46.842491,0.676894284 L51.0646623,0.676894284 C51.3347677,0.676894284 51.579283,0.814666902 51.7015412,1.03078082 C51.8294859,1.24689474 51.809587,1.51163438 51.6588967,1.71424118 C50.5102378,3.23964527 49.3606289,4.76504997 48.2100746,6.29045405 C48.3238032,6.36879534 48.4346902,6.44983781 48.5398892,6.53358196 C48.8355835,6.76860585 49.1142204,7.02524111 49.3843258,7.30618919 C50.0069871,7.97344037 50.515924,8.72173509 50.9026012,9.55107223 C51.2892785,10.3479923 51.6077194,11.1449131 51.8493926,11.9364303 C51.9119434,12.1363357 51.8664504,12.3497485 51.7299761,12.5172368 C51.5878154,12.6820237 51.3745761,12.7792739 51.1471189,12.7792739 L46.8993569,12.7792739 C46.5581711,12.7792739 46.262471,12.5604587 46.1913907,12.2551978 C46.1288399,11.9769512 46.0407045,11.6743916 45.9298191,11.3475192 C45.8189327,11.0071399 45.6995182,10.6964765 45.5715735,10.4074241 C45.5687303,10.4020213 45.5658878,10.3939169 45.5630446,10.388514 C45.4407864,10.0913573 45.3355843,9.87254167 45.2502878,9.72396334 C45.0967542,9.45382148 44.917633,9.21609565 44.718608,9.00808602 C44.7110261,10.0436318 44.7034435,11.0800783 44.6958616,12.1174251 C44.6930184,12.4821173 44.3632059,12.7792739 43.9623126,12.7792739 L40.2462304,12.7792739 C39.8424939,12.7792739 39.5212114,12.4821173 39.5240546,12.1174251 C39.5600686,8.52453109 39.5922926,4.93163708 39.6207247,1.33874308 C39.6235679,0.974050847 39.947693,0.676894284 40.3514295,0.676894284 L44.0447653,0.676894284 Z M24.3394469,7.37157448 C24.8960456,8.8798445 25.4501376,10.3879557 26.0017229,11.8959082 C26.0728032,12.098515 26.0329981,12.3227332 25.8965238,12.4983257 C25.7543631,12.6739183 25.5297483,12.7792739 25.2909183,12.7792739 L21.6743525,12.7792739 C21.350226,12.7792739 21.0744321,12.5847717 20.9919789,12.3038236 C20.8687729,11.8824014 20.7436724,11.4618794 20.6166754,11.0422582 L17.9781705,11.0422582 C17.8322188,11.4600784 17.6853213,11.8787996 17.5374741,12.2984208 C17.4379616,12.5820704 17.1479536,12.7792739 16.8209839,12.7792739 L13.3408885,12.7792739 C13.1077449,12.7792739 12.8916606,12.6739183 12.7637159,12.4983257 C12.6386145,12.3227332 12.615869,12.098515 12.7040087,11.8959082 C13.3341579,10.3877593 13.9561246,8.87976905 14.5699089,7.37193749 L18.2028812,7.37182797 C18.12271,7.62184559 18.0423805,7.87186321 17.9618927,8.12188083 L20.2022446,8.12188083 L19.9856424,7.37125906 L24.3394469,7.37157448 Z M12.1749806,7.37200535 C12.1361743,8.95381193 12.0850602,10.5356185 12.021638,12.1174251 C12.0017355,12.4821173 11.6633907,12.7792739 11.2653406,12.7792739 L7.60328064,12.7792739 C7.20807377,12.7792739 6.91237952,12.4821173 6.94365488,12.1174251 C7.04032418,10.9432061 7.12656847,9.76988787 7.20238754,8.59746976 L5.61018688,8.59746976 C5.51541305,9.76988787 5.40831915,10.9432061 5.28890413,12.1174251 C5.25194234,12.4821173 4.90222682,12.7792739 4.51270639,12.7792739 L0.97290386,12.7792739 C0.597599487,12.7792739 0.361612613,12.4821173 0.444065841,12.1174251 C0.707790843,10.5354842 0.875425077,8.95354332 0.946968521,7.37160243 L12.1749806,7.37200535 Z M4.83114657,0.676894284 C5.2178238,0.676894284 5.55047969,0.974050847 5.57038219,1.33874308 C5.62914196,2.4913508 5.67463342,3.64305777 5.70685652,4.79386437 L7.29905669,4.79386437 C7.28010193,3.64305777 7.25261759,2.4913508 7.21660353,1.33874308 C7.20238746,0.974050847 7.50945435,0.676894284 7.90181798,0.676894284 L11.5411336,0.676894284 C11.9363404,0.676894284 12.2604672,0.974050847 12.2633104,1.33874308 C12.2557983,2.92088295 12.2359734,4.50302283 12.2038354,6.0851627 L0.983968766,6.08496106 C1.00341143,4.5028884 0.92674728,2.92081574 0.753976312,1.33874308 C0.691425588,0.974050847 0.944471596,0.676894284 1.3140895,0.676894284 L4.83114657,0.676894284 Z M21.3416956,0.676894284 C21.6459196,0.676894284 21.9188661,0.85518824 22.0183786,1.11992781 C22.6365741,2.77500631 23.2517531,4.42989369 23.8639153,6.08458998 L19.6157945,6.08473726 C19.4567938,5.53569856 19.2970295,4.98665987 19.1365019,4.43762118 L18.6136424,6.08425906 L15.091767,6.08509085 C15.7604874,4.42984528 16.419346,2.77479095 17.0683429,1.11992781 C17.1706986,0.85518824 17.4436482,0.676894284 17.7478722,0.676894284 L21.3416956,0.676894284 Z" id="path-5"></path>
        <filter x="-0.3%" y="-1.0%" width="100.5%" height="102.0%" filterUnits="objectBoundingBox" id="filter-6">
            <feOffset dx="0.257462263" dy="0" in="SourceAlpha" result="shadowOffsetInner1"></feOffset>
            <feComposite in="shadowOffsetInner1" in2="SourceAlpha" operator="arithmetic" k2="-1" k3="1" result="shadowInnerInner1"></feComposite>
            <feColorMatrix values="0 0 0 0 0   0 0 0 0 0   0 0 0 0 0  0 0 0 1 0" type="matrix" in="shadowInnerInner1"></feColorMatrix>
        </filter>
        <path d="M10.0530958,3.4826688 L10.0530958,6.33759795 L7.10668029,6.33759795 C6.39119716,6.33759795 5.7223331,6.61599957 5.2213417,7.12136845 C4.71728615,7.62958263 4.44326192,8.30785807 4.44939025,9.03122063 L4.45661272,12.8384492 C4.45880142,14.0923506 3.92541749,15.2703051 2.98821994,16.0943474 C3.92454197,16.9183898 4.45880171,18.1011584 4.45683189,19.3504636 L4.44939025,23.3815954 C4.44326192,24.1058335 4.71728615,24.7838908 5.2213417,25.2923239 C5.7223331,25.7976927 6.39119731,26.0758742 7.10492946,26.0758742 L10.0530958,26.0758742 L10.0530958,28.9310235 L7.17868791,28.9310235 C4.09832397,28.9310235 1.59052182,26.4249714 1.58833313,23.3446068 L1.58461231,18.9978653 C1.5839557,18.1970231 0.931944651,17.5452306 0.131102592,17.5452306 L1.11172367e-14,17.5452306 L1.11172367e-14,14.7005887 L0.131102592,14.7005887 C0.931944651,14.7005887 1.5839557,14.049015 1.58461231,13.2479539 L1.58833313,9.06886632 C1.59052182,5.98872076 4.09832397,3.4826688 7.17868791,3.4826688 L10.0530958,3.4826688 Z M23.4630159,3.65051901 C26.5433798,3.65051901 29.0514007,6.15657044 29.0533705,9.23693456 L29.0570917,13.2481493 C29.0577483,14.0492103 29.7097592,14.7007831 30.5106012,14.7007831 L30.6417036,14.7007831 L30.6417036,17.5454255 L30.5106012,17.5454255 C29.7097592,17.5454255 29.0577483,18.196999 29.0570917,18.9980601 L29.0533705,23.344801 C29.0514007,26.4249462 26.5433798,28.9309965 23.4630159,28.9309965 L20.5886078,28.9309965 L20.5886078,26.076068 L23.5350237,26.076068 C24.250288,26.076068 24.9195898,25.7976662 25.4203623,25.2922974 C25.9246367,24.7838644 26.1984421,24.1058081 26.1923138,23.3826646 L26.1848721,19.3506582 C26.1829023,18.1011344 26.7171616,16.918584 27.6534837,16.0945417 C26.716505,15.2704994 26.1831212,14.0925461 26.1848721,12.838426 L26.1923138,9.19972679 C26.1984421,8.47570771 25.9246367,7.7974323 25.4203623,7.28921819 C24.9195898,6.78384938 24.2502881,6.50544779 23.5367748,6.50544779 L20.5886078,6.50544779 L20.5886078,3.65051901 Z M25.609457,14.7359952 L25.609457,17.5823884 L24.1572597,17.5823884 C24.0403836,17.6624945 23.7354995,17.9087224 23.2868177,18.5386278 L23.2187484,18.6347111 C22.7177569,19.3399075 22.4150615,19.7658271 21.5395849,19.7658271 C20.7087573,19.7651705 20.3038489,19.318896 20.2309654,19.2291596 C20.1495461,19.16328 19.6288562,18.7439271 19.0396605,18.3302644 C18.4635969,17.9260131 18.066569,18.0790023 17.4651166,18.310347 L17.4154331,18.3296078 C16.6839724,18.610198 16.0914938,18.532937 15.3692256,18.0617117 C14.9651932,17.7981933 14.70452,17.656585 14.5515304,17.5823884 L4.97315979,17.5823884 L4.97315979,14.7359952 L25.609457,14.7359952 Z" id="path-7"></path>
        <filter x="-27.1%" y="-32.6%" width="154.1%" height="165.2%" filterUnits="objectBoundingBox" id="filter-8">
            <feOffset dx="0" dy="0" in="SourceAlpha" result="shadowOffsetOuter1"></feOffset>
            <feGaussianBlur stdDeviation="2.76460814" in="shadowOffsetOuter1" result="shadowBlurOuter1"></feGaussianBlur>
            <feColorMatrix values="0 0 0 0 1   0 0 0 0 0.737254918   0 0 0 0 0.0509803928  0 0 0 0.629999995 0" type="matrix" in="shadowBlurOuter1"></feColorMatrix>
        </filter>
    </defs>
    <g id="页面-1" stroke="none" stroke-width="1" fill="none" fill-rule="evenodd" opacity="0.99">
        <g id="漏错监测-错装汉堡的错误示范" transform="translate(-135, -175)">
            <g id="GUI-基础" transform="translate(121, 165)">
                <g id="PC网站logo" transform="translate(119, 27.5711) rotate(0) translate(-119, -27.5711)translate(20, 12.9998)">
                    <text id="2024-Burger-X" stroke="#FFFFFF" stroke-width="0.594642341" stroke-linejoin="round" fill-rule="nonzero" transform="translate(76.2261, 6) rotate(-0) translate(-76.2261, -6)" font-family="Speedee-Bold, Speedee" font-size="10.9960089" font-weight="bold" line-spacing="12" letter-spacing="0.549800444" fill="#000000" fill-opacity="0">
                        <tspan x="36.9511716" y="11.0000005">2024 Burger X</tspan>
                    </text>
                    <g id="Mask-group" transform="translate(94.8051, 22.4532) rotate(-0) translate(-94.8051, -22.4532)translate(36.9531, 15.7637)">
                        <path d="M102.668469,7.37175904 C102.622681,8.35859431 102.412915,9.27010548 102.029851,10.1016337 C101.548553,11.1215367 100.815139,11.9294386 99.8382084,12.511013 C98.8498185,13.104047 97.6465632,13.379077 96.2714118,13.379077 C94.8933957,13.379077 93.6672171,13.1011821 92.624394,12.511013 C91.6130819,11.9265737 90.830966,11.1215367 90.2895002,10.1044976 C89.8497197,9.2810787 89.587573,8.36597705 89.4937054,7.37166923 L94.8297829,7.37201682 C94.9021757,8.02943646 95.0586574,8.50923793 95.2629578,8.84394282 C95.5064741,9.22783928 95.784373,9.36535436 96.15108,9.36535436 C96.5149221,9.36535436 96.7842252,9.22783928 97.0076872,8.84394282 C97.1946003,8.50923793 97.3270988,8.02943646 97.3701643,7.37201682 L102.668469,7.37175904 Z M32.1607087,0 C33.8595935,0 35.2977679,0.455518871 36.3978889,1.4267196 C37.4808205,2.37213619 38.1340222,3.65847586 38.3889982,5.2284404 C38.4233769,5.4318482 38.3632128,5.63812096 38.2199678,5.79569041 C38.0824527,5.95325985 37.8761819,6.04493656 37.6613145,6.04493656 L33.704887,6.04493656 C33.3410449,6.04493656 33.0373663,5.78996048 32.988663,5.44617261 C32.8969863,4.81303 32.7365541,4.43486311 32.5675251,4.22859039 C32.427145,4.05383156 32.2724395,3.97934449 32.0403828,3.97934449 C31.7968664,3.97934449 31.5562145,4.07675079 31.315563,4.50935049 C31.060588,4.95913958 30.8915592,5.66103986 30.8800996,6.68953848 C30.8657751,7.7180371 31.0176155,8.41993786 31.2582669,8.86399715 C31.481729,9.27081275 31.7252439,9.38254379 32.0117337,9.38254379 C32.2266011,9.38254379 32.3583863,9.3166507 32.4787121,9.16481108 C32.6592007,8.94707878 32.8225007,8.58610147 32.9256371,8.02458127 C32.9858,7.68652325 33.2952084,7.43727743 33.6533207,7.43727743 L37.615476,7.43727743 C37.8246136,7.43727743 38.0251546,7.52608925 38.1626698,7.67792887 C38.3001849,7.82976849 38.36035,8.03317635 38.3288362,8.23371926 C38.1769966,9.23929871 37.821749,10.1388779 37.257364,10.9209952 C36.7015737,11.7059775 35.9681555,12.3133354 35.0685774,12.7402053 C34.1661344,13.1756699 33.1405046,13.379077 32.00314,13.379077 C30.6107994,13.379077 29.3874886,13.1097769 28.3819092,12.5310673 C27.3963832,11.9523578 26.6629669,11.1473208 26.1845289,10.1245519 C25.7118206,9.11610759 25.4998188,7.96441841 25.5198731,6.68953848 C25.5370625,5.43471275 25.7863111,4.29448331 26.2848034,3.28603895 C26.7890256,2.26613505 27.5396274,1.45536851 28.5308823,0.870929209 C29.5507871,0.275030289 30.7740978,0 32.1607087,0 Z M11.836948,7.37159499 C11.7978433,9.04940051 11.7463328,10.727206 11.6824164,12.4050116 C11.6623621,12.7917729 11.3214377,13.1069121 10.920352,13.1069121 L7.23036302,13.1069121 C6.83214213,13.1069121 6.53419289,12.7917729 6.56570677,12.4050116 C6.66311332,11.1597356 6.75001524,9.91541469 6.82641254,8.67204858 L5.22206926,8.67204858 C5.12657265,9.91541469 5.01866183,11.1597356 4.8983361,12.4050116 C4.86109242,12.7917729 4.50870986,13.1069121 4.11621879,13.1069121 L0.549420163,13.1069121 C0.171253546,13.1069121 -0.066533071,12.7917729 0.0165489829,12.4050116 C0.282306602,10.727206 0.451225073,9.04940051 0.52330438,7.37159499 L11.836948,7.37159499 Z M49.388,7.371 L49.5918975,7.6111593 C50.1014651,8.2387472 50.5259392,8.92948007 50.8599045,9.68335772 C51.0942589,10.1917 51.3037381,10.7000425 51.4864716,11.207138 L51.66,11.712 L53.27,7.371 L57.2518771,7.37171221 C57.2116965,7.49701837 57.1714762,7.62232452 57.1312162,7.74763068 C57.0717771,7.93262323 57.2097207,8.121948 57.4040274,8.121948 L58.8712118,8.121948 C59.0615978,8.121948 59.1990229,7.9396804 59.1465412,7.7566703 L59.035,7.371 L63.164886,7.37175344 C63.7553672,8.97136715 64.3473641,10.5708125 64.940877,12.1700894 C65.0182293,12.3849568 64.9838543,12.6227436 64.849204,12.8089621 C64.7145538,12.9951805 64.4910906,13.1069121 64.253304,13.1069121 L60.609154,13.1069121 C60.2825556,13.1069121 59.9989273,12.9006394 59.9043857,12.6026899 L59.4861117,11.2647818 L56.8160251,11.2647818 L56.4149425,12.5969601 C56.3261306,12.8977745 56.0396375,13.1069121 55.7101741,13.1069121 L52.1834842,13.1069121 C51.9763069,13.1069121 51.7818729,13.0241019 51.6440479,12.8822459 L51.658,12.865 L51.6162629,12.9102823 C51.4783233,13.0352899 51.2972775,13.1069121 51.1062843,13.1069121 L46.8261276,13.1069121 C46.4823397,13.1069121 46.184386,12.8748552 46.1127635,12.5511217 C46.0497358,12.2560371 45.9609273,11.9351687 45.8491963,11.5885159 C45.7374662,11.2275387 45.6171408,10.8980755 45.4882204,10.5915313 C45.4853555,10.5858015 45.4824896,10.5772068 45.4796247,10.571477 C45.356434,10.2563381 45.2504302,10.024281 45.1644833,9.86671157 C45.0097787,9.5802217 44.8292921,9.3281102 44.6287492,9.107513 C44.6211094,10.2057241 44.6134697,11.3048905 44.6058299,12.4050116 C44.602965,12.7917729 44.2706373,13.1069121 43.8666867,13.1069121 L40.1222641,13.1069121 C39.7154485,13.1069121 39.3917155,12.7917729 39.3945804,12.4050116 L39.44,7.371 L49.388,7.371 Z M115.20282,7.37111794 C115.278438,9.04908248 115.440729,10.727047 115.68969,12.4050116 C115.767042,12.7917729 115.520663,13.1069121 115.142496,13.1069121 L111.807752,13.1069121 C111.544181,13.1069121 111.289212,12.9608025 111.143102,12.7316106 C110.35239,11.4538658 109.579815,10.1761208 108.825392,8.898376 C108.897969,10.0672546 108.978191,11.236133 109.066047,12.4050116 C109.097561,12.7917729 108.799606,13.1069121 108.40425,13.1069121 L104.805938,13.1069121 C104.407717,13.1069121 104.063933,12.7917729 104.046744,12.4050116 C103.980304,10.727206 103.925159,9.04940051 103.881308,7.37159499 L115.20282,7.37111794 Z M88.3114678,7.37159499 C88.3387134,9.04940051 88.3687362,10.727206 88.4015354,12.4050116 C88.4101301,12.7917729 88.0892571,13.1069121 87.6881713,13.1069121 L83.9580723,13.1069121 C83.5512567,13.1069121 83.2189359,12.7917729 83.2103412,12.4050116 C83.1893319,11.1597356 83.1692706,9.91541469 83.1501713,8.67204858 L81.4398246,8.67204858 C81.4589239,9.91541469 81.4780273,11.1597356 81.4971266,12.4050116 C81.5028564,12.7917729 81.1791205,13.1069121 80.7780347,13.1069121 L77.0450757,13.1069121 C76.641125,13.1069121 76.3087944,12.7917729 76.3030646,12.4050116 L76.251,7.371 L88.3114678,7.37159499 Z M24.0939444,7.37133349 C24.6548631,8.97108721 25.2132552,10.5706725 25.7691207,12.1700894 C25.8407432,12.3849568 25.8006334,12.6227436 25.6631183,12.8089621 C25.5198734,12.9951805 25.2935462,13.1069121 25.0528947,13.1069121 L21.4087467,13.1069121 C21.0821483,13.1069121 20.8042518,12.9006394 20.7211698,12.6026899 C20.5970242,12.1557658 20.4709699,11.709796 20.3430044,11.2647818 L17.6843775,11.2647818 C17.5373127,11.7078861 17.389293,12.1519459 17.2403183,12.5969601 C17.1400469,12.8977745 16.8478278,13.1069121 16.5183645,13.1069121 L13.0117289,13.1069121 C12.7768072,13.1069121 12.5590748,12.9951805 12.4301544,12.8089621 C12.3040989,12.6227436 12.2811795,12.3849568 12.3699914,12.1700894 C13.0050784,10.5703438 13.6319169,8.97076658 14.2505072,7.37135771 L18.2026744,7.37171221 C18.1624935,7.49701837 18.1222728,7.62232452 18.0820124,7.74763068 C18.022575,7.93262323 18.1605199,8.121948 18.3548261,8.121948 L19.8220086,8.121948 C20.0123953,8.121948 20.149822,7.9396804 20.0973391,7.7566703 L19.986,7.371 L24.0939444,7.37133349 Z M43.9497679,0.272165385 C44.3508537,0.272165385 44.6774525,0.587304177 44.6745876,0.974065506 C44.6726777,1.65400147 44.6698157,2.33393736 44.6659959,3.01387332 C45.1568485,2.21552154 45.6467401,1.41716988 46.1356828,0.61881809 C46.2674681,0.403950692 46.5109886,0.272165385 46.7688295,0.272165385 L51.0231991,0.272165385 C51.2953645,0.272165385 51.541747,0.418275227 51.6649376,0.64746713 C51.793858,0.876659032 51.7738066,1.15741915 51.621967,1.37228654 C50.4981689,2.94300767 49.3734689,4.51372938 48.2478703,6.08445054 L39.4512713,6.08448847 C39.4656059,4.38101416 39.4791771,2.67753984 39.4919852,0.974065506 C39.4948501,0.587304177 39.821449,0.272165385 40.2282645,0.272165385 L43.9497679,0.272165385 Z M60.041905,0.272165385 C60.3513141,0.272165385 60.6263427,0.461248679 60.7266141,0.742008776 L62.69,6.084 L58.6646353,6.08447583 C58.5929999,5.83711371 58.5212096,5.58975158 58.4492646,5.34238945 C58.3701944,5.07053302 57.9867157,5.06628483 57.9011044,5.33615347 L57.663,6.084 L53.7484927,6.08426833 C54.4087433,4.30330643 55.0683677,2.52255328 55.7273655,0.742008776 C55.8305019,0.461248679 56.1083974,0.272165385 56.4178064,0.272165385 L60.041905,0.272165385 Z M80.6261958,0.272165385 C81.0244167,0.272165385 81.3538863,0.587304177 81.3567512,0.974065506 C81.3682108,2.1964224 81.3796666,3.41782429 81.3911262,4.63827117 L83.098605,4.63827117 C83.0852355,3.41782429 83.0728218,2.1964224 83.0613622,0.974065506 C83.0584973,0.587304177 83.3822313,0.272165385 83.7861819,0.272165385 L87.4876339,0.272165385 C87.8887197,0.272165385 88.2181766,0.587304177 88.2210415,0.974065506 C88.2415344,2.67753984 88.2648914,4.38101416 88.2911116,6.08448847 L76.2386187,6.08448847 C76.2226658,4.38101416 76.2078582,2.67753984 76.1941963,0.974065506 C76.1913314,0.587304177 76.5179351,0.272165385 76.916156,0.272165385 L80.6261958,0.272165385 Z M96.0049689,0 C97.3715254,0 98.5776546,0.275030289 99.580369,0.868064305 C100.580219,1.44963877 101.345145,2.25754027 101.866557,3.27457934 C102.300751,4.11897975 102.556171,5.05979474 102.642917,6.0835695 L97.3492872,6.08279405 C97.282682,5.38671383 97.127098,4.88918084 96.9217382,4.55518895 C96.672489,4.15123823 96.400324,4.01372309 96.0422117,4.01372309 C95.6812345,4.01372309 95.4119363,4.15123823 95.1827444,4.54945915 C94.9812947,4.88918084 94.8395865,5.38671383 94.798171,6.08279405 L89.4662939,6.08400753 C89.5191735,5.0600631 89.7521829,4.11910017 90.172044,3.27457934 C90.6791311,2.25754027 91.426868,1.45250367 92.4123931,0.870929209 C93.4265622,0.277895193 94.6355474,0 96.0049689,0 Z M107.922946,0.272165385 C108.186516,0.272165385 108.424307,0.415410323 108.544633,0.64746713 C109.18255,1.90611265 109.816644,3.16571274 110.446921,4.42626828 C110.47175,3.27648886 110.506133,2.12575481 110.550062,0.974065506 C110.567251,0.587304177 110.896719,0.272165385 111.286345,0.272165385 L114.750009,0.272165385 C115.125311,0.272165385 115.386006,0.587304177 115.334438,0.974065506 C115.187581,2.67743392 115.130041,4.3808023 115.161817,6.08417069 L103.849885,6.08448847 C103.811228,4.38101416 103.784215,2.67753984 103.768845,0.974065506 C103.768845,0.587304177 104.092584,0.272165385 104.490805,0.272165385 L107.922946,0.272165385 Z M4.43708754,0.272165385 C4.82671374,0.272165385 5.16190681,0.587304177 5.1819611,0.974065506 C5.241169,2.1964224 5.28700715,3.41782429 5.319476,4.63827117 L6.92381927,4.63827117 C6.90471995,3.41782429 6.87702577,2.1964224 6.84073706,0.974065506 C6.82641257,0.587304177 7.13582146,0.272165385 7.53117744,0.272165385 L11.1982476,0.272165385 C11.5964685,0.272165385 11.9230674,0.587304177 11.9259323,0.974065506 C11.9182474,2.67753984 11.8977744,4.38101416 11.8645131,6.08448847 L0.559602491,6.08448847 C0.582500911,4.38101416 0.505574406,2.67753984 0.328822957,0.974065506 C0.265795193,0.587304177 0.520771062,0.272165385 0.893207842,0.272165385 L4.43708754,0.272165385 Z M21.0735539,0.272165385 C21.3800981,0.272165385 21.6551257,0.461248679 21.7553972,0.742008776 C22.3874328,2.52295693 23.0163392,4.30369634 23.6421163,6.0842271 L19.615434,6.08447583 C19.5437981,5.83711371 19.4720074,5.58975158 19.4000616,5.34238945 C19.3209914,5.07053302 18.9375117,5.06628483 18.8519026,5.33615347 L18.613,6.084 L14.7465127,6.08433326 C15.4304404,4.30334972 16.1041395,2.52257492 16.7676102,0.742008776 C16.8707465,0.461248679 17.1457771,0.272165385 17.4523212,0.272165385 L21.0735539,0.272165385 Z M72.131,4.755 L72.132,4.799 L72.132,4.802 L72.133,4.943 L72.133,4.944 L72.134,5.06 L72.133,5.045 L72.134,5.087 L72.134,5.1 L72.135,5.208 L72.134,5.193 L72.135,5.228 L72.135,5.269 L72.136,5.382 L72.136,5.413 L72.137,5.529 L72.138,5.623 L72.138,5.647 L72.139,5.745 L72.138,5.727 L72.139,5.795 L72.139,5.805 L72.14,5.93 L72.14,5.933 L72.141,6.037 L72.142,6.084 L72.1289123,4.3030779 C72.1480116,7.00372229 72.169973,9.70436718 72.1948021,12.4050116 C72.197667,12.7917729 71.8767979,13.1069121 71.4699824,13.1069121 L67.7370233,13.1069121 C67.3359375,13.1069121 67.003605,12.7917729 67.0007401,12.4050116 C66.9912465,10.7270254 66.9821227,9.04903906 66.9733673,7.37105275 L72.151,7.371 L72.142,6.084 L66.9667243,6.08406327 C66.9636933,5.49040146 66.9607084,4.89673967 66.9577694,4.3030779 L64.3965473,4.3030779 C63.9925966,4.3030779 63.6631358,3.99080389 63.6631358,3.60117765 C63.6612258,2.72642859 63.6602679,1.85072452 63.6602679,0.974065506 C63.6602679,0.587304177 63.9868697,0.272165385 64.3879555,0.272165385 L74.6672113,0.272165385 C75.0654322,0.272165385 75.3948939,0.587304177 75.3977588,0.974065506 C75.4034886,1.85072452 75.4092126,2.72642859 75.4149424,3.60117765 C75.4178073,3.99080389 75.0940763,4.3030779 74.6929905,4.3030779 L72.1289123,4.3030779 L72.128,4.323 L72.129,4.38 L72.129,4.495 L72.13,4.549 L72.13,4.627 L72.131,4.668 L72.131,4.755 Z" id="Subtract" fill="#FFFFFF" fill-rule="nonzero"></path>
                        <mask id="mask-2" fill="white">
                            <use xlink:href="#path-1"></use>
                        </mask>
                        <g id="Subtract" fill-rule="nonzero"></g>
                        <g id="Subtract" fill-rule="nonzero" mask="url(#mask-2)">
                            <use fill="#FFFFFF" xlink:href="#path-3"></use>
                            <use fill="black" fill-opacity="1" filter="url(#filter-4)" xlink:href="#path-3"></use>
                        </g>
                        <g id="Subtract" fill-rule="nonzero" mask="url(#mask-2)">
                            <use fill="#FFFFFF" xlink:href="#path-5"></use>
                            <use fill="black" fill-opacity="1" filter="url(#filter-6)" xlink:href="#path-5"></use>
                        </g>
                    </g>
                    <g id="Union" fill-rule="nonzero">
                        <use fill="black" fill-opacity="1" filter="url(#filter-8)" xlink:href="#path-7"></use>
                        <use fill="#FFBC0D" xlink:href="#path-7"></use>
                    </g>
                    <path d="M189.563972,3.00024433 C186.913508,3.00024433 184.548247,6.49848769 183.002143,11.969936 C181.453894,6.49848769 179.088633,3.00024433 176.438169,3.00024433 C171.778412,3.00024433 168,14.641941 168,29.0002443 L171.750535,29.0002443 C171.750535,15.6657135 173.849892,4.85662851 176.438169,4.85662851 C179.026446,4.85662851 181.125803,14.8352242 181.125803,27.1438589 L184.876338,27.1438589 C184.876338,14.8352242 186.975695,4.85662851 189.563972,4.85662851 C192.152249,4.85662851 194.251606,15.6657135 194.251606,29.0002443 L198,29.0002443 C198.002141,14.641941 194.223729,3.00024433 189.563972,3.00024433 Z" id="路径" fill="#FFBC0D" fill-rule="nonzero" transform="translate(183, 16.0002) rotate(-0) translate(-183, -16.0002)"></path>
                </g>
            </g>
        </g>
    </g>
</svg>